<svg width="232" height="988" viewBox="0 0 232 988" fill="none" xmlns="http://www.w3.org/2000/svg">
<g clip-path="url(#clip0_553_3758)">
<path d="M0 12C0 5.37259 5.37258 0 12 0H220C226.627 0 232 5.37258 232 12V976C232 982.627 226.627 988 220 988H12C5.37258 988 0 982.627 0 976V12Z" fill="#181C2A"/>
<g clip-path="url(#clip1_553_3758)">
<rect width="232" height="988" fill="#0E1116"/>
<g opacity="0.8" filter="url(#filter0_f_553_3758)">
<ellipse cx="39" cy="890" rx="147" ry="146" transform="rotate(-90 39 890)" fill="#255D6A"/>
</g>
<g opacity="0.5" filter="url(#filter1_f_553_3758)">
<ellipse cx="20.5" cy="29.5" rx="110.5" ry="110.5" transform="rotate(-90 20.5 29.5)" fill="#255D6A"/>
</g>
<g opacity="0.8" filter="url(#filter2_f_553_3758)">
<ellipse cx="216.5" cy="29.5" rx="110.5" ry="110.5" transform="rotate(-90 216.5 29.5)" fill="#2A2879"/>
</g>
<g opacity="0.8" filter="url(#filter3_f_553_3758)">
<circle cx="212.5" cy="412.5" r="147.5" transform="rotate(-90 212.5 412.5)" fill="#2A2879"/>
</g>
</g>
</g>
<defs>
<filter id="filter0_f_553_3758" x="-631.81" y="218.19" width="1341.62" height="1343.62" filterUnits="userSpaceOnUse" color-interpolation-filters="sRGB">
<feFlood flood-opacity="0" result="BackgroundImageFix"/>
<feBlend mode="normal" in="SourceGraphic" in2="BackgroundImageFix" result="shape"/>
<feGaussianBlur stdDeviation="262.405" result="effect1_foregroundBlur_553_3758"/>
</filter>
<filter id="filter1_f_553_3758" x="-279.31" y="-270.31" width="599.62" height="599.62" filterUnits="userSpaceOnUse" color-interpolation-filters="sRGB">
<feFlood flood-opacity="0" result="BackgroundImageFix"/>
<feBlend mode="normal" in="SourceGraphic" in2="BackgroundImageFix" result="shape"/>
<feGaussianBlur stdDeviation="94.655" result="effect1_foregroundBlur_553_3758"/>
</filter>
<filter id="filter2_f_553_3758" x="-83.31" y="-270.31" width="599.62" height="599.62" filterUnits="userSpaceOnUse" color-interpolation-filters="sRGB">
<feFlood flood-opacity="0" result="BackgroundImageFix"/>
<feBlend mode="normal" in="SourceGraphic" in2="BackgroundImageFix" result="shape"/>
<feGaussianBlur stdDeviation="94.655" result="effect1_foregroundBlur_553_3758"/>
</filter>
<filter id="filter3_f_553_3758" x="-388.31" y="-188.31" width="1201.62" height="1201.62" filterUnits="userSpaceOnUse" color-interpolation-filters="sRGB">
<feFlood flood-opacity="0" result="BackgroundImageFix"/>
<feBlend mode="normal" in="SourceGraphic" in2="BackgroundImageFix" result="shape"/>
<feGaussianBlur stdDeviation="226.655" result="effect1_foregroundBlur_553_3758"/>
</filter>
<clipPath id="clip0_553_3758">
<path d="M0 12C0 5.37259 5.37258 0 12 0H220C226.627 0 232 5.37258 232 12V976C232 982.627 226.627 988 220 988H12C5.37258 988 0 982.627 0 976V12Z" fill="white"/>
</clipPath>
<clipPath id="clip1_553_3758">
<rect width="232" height="988" fill="white"/>
</clipPath>
</defs>
</svg>
